# Blender v2.76 (sub 0) OBJ File: ''
# www.blender.org
mtllib CandyCane.mtl
o weapon_010
v -0.015763 0.651084 -0.195585
v -0.079852 0.614081 -0.211332
v -0.079852 0.614081 0.938699
v -0.015763 0.651084 0.969750
v -0.079852 0.540077 0.915348
v -0.079852 0.540077 -0.211332
v 0.048327 0.614081 -0.211332
v 0.048327 0.614081 0.938699
v 0.048327 0.540077 -0.211332
v 0.048327 0.540077 0.915348
v -0.015763 0.503075 -0.211332
v -0.015763 0.503075 0.909881
v -0.079852 0.540077 -0.211332
v -0.079852 0.540077 0.915348
v -0.015763 0.633952 1.084072
v -0.079852 0.595422 1.038122
v -0.079852 0.535248 0.992985
v -0.079852 0.535248 0.992985
v -0.015763 0.495605 0.974015
v 0.048327 0.535248 0.992985
v 0.048327 0.595422 1.038121
v -0.015763 0.603897 1.182402
v -0.079852 0.567619 1.136323
v -0.015763 0.526299 1.274454
v -0.079852 0.528876 1.082193
v -0.079852 0.494783 1.208807
v -0.079852 0.463544 1.144981
v -0.015763 0.433988 1.323567
v -0.079852 0.415975 1.265296
v -0.015763 0.355263 1.335198
v -0.080321 0.353823 1.272659
v -0.079852 0.398722 1.190624
v -0.080321 0.351791 1.196643
v 0.048795 0.353823 1.272659
v 0.048327 0.415975 1.265295
v 0.048795 0.351791 1.196643
v 0.048327 0.398722 1.190624
v -0.015763 0.349515 1.136747
v -0.015763 0.376997 1.131238
v -0.080321 0.351791 1.196643
v 0.048327 0.463544 1.144981
v -0.015763 0.436569 1.087211
v 0.048327 0.528876 1.082193
v 0.048327 0.567619 1.136323
v 0.048327 0.494783 1.208807
v -0.015763 0.488135 1.038149
v -0.079852 0.528876 1.082193
v -0.079852 0.463544 1.144981
v -0.079852 0.398722 1.190624
v -0.080789 0.313583 1.191703
v -0.015763 0.320873 1.137305
v -0.081258 0.272019 1.179366
v -0.015763 0.288222 1.123681
v 0.049264 0.313583 1.191703
v 0.049732 0.272019 1.179366
v 0.049264 0.301660 1.264540
v 0.049732 0.247428 1.246418
v -0.015763 0.284289 1.331545
v -0.015763 0.222243 1.315957
v -0.081726 0.240578 1.167103
v -0.015763 0.266430 1.109864
v -0.080789 0.184060 1.111212
v -0.015763 0.227005 1.070488
v 0.050201 0.240578 1.167103
v 0.049264 0.184060 1.111212
v 0.050201 0.201169 1.230577
v 0.049264 0.137735 1.159043
v -0.015763 0.163984 1.286576
v -0.015763 0.087877 1.209146
v -0.079852 0.139403 1.039168
v -0.015763 0.186715 1.010402
v -0.079852 0.113973 0.931194
v -0.015763 0.167206 0.931067
v 0.048327 0.139404 1.039168
v 0.048327 0.113973 0.931194
v 0.048327 0.083004 1.071199
v 0.048327 0.039969 0.931447
v -0.015763 0.024436 1.094686
v -0.015763 -0.008189 0.931574
v -0.079852 0.083004 1.071199
v -0.079852 0.039969 0.931447
v -0.079852 0.139403 1.039168
v -0.079852 0.113973 0.931194
v -0.080789 0.137734 1.159043
v -0.081726 0.201169 1.230577
v -0.081726 0.240578 1.167103
v -0.080789 0.184060 1.111212
v -0.081258 0.247427 1.246418
v -0.080789 0.301659 1.264540
v -0.080789 0.313583 1.191703
v -0.081258 0.272019 1.179366
v 0.048327 0.614081 -0.211332
v 0.048327 0.540077 -0.211332
v -0.015763 0.503075 -0.211332
v -0.015763 0.651084 -0.195585
v -0.079852 0.614081 -0.211332
v -0.079852 0.540077 -0.211332
v -0.015763 -0.008189 0.931574
v -0.015763 0.167206 0.931067
v 0.048327 0.113973 0.931194
v 0.048327 0.039969 0.931447
v -0.079852 0.113973 0.931194
v -0.079852 0.039969 0.931447
vt 0.669828 0.979016
vt 0.832928 0.979016
vt 0.832928 0.545086
vt 0.669828 0.545086
vt 0.996029 0.545086
vt 0.996029 0.979016
vt 0.506727 0.979016
vt 0.506727 0.545086
vt 0.343627 0.979016
vt 0.343627 0.545086
vt 0.180526 0.979016
vt 0.180526 0.545086
vt 0.017426 0.979016
vt 0.017426 0.545086
vt 0.669828 0.508936
vt 0.832928 0.508936
vt 0.996029 0.508936
vt 0.017426 0.508936
vt 0.180526 0.508936
vt 0.343627 0.508936
vt 0.506727 0.508936
vt 0.669828 0.472786
vt 0.832928 0.472786
vt 0.669828 0.418544
vt 0.996029 0.472786
vt 0.832928 0.418544
vt 0.996029 0.418544
vt 0.669828 0.364303
vt 0.832928 0.364303
vt 0.669828 0.336788
vt 0.832928 0.336788
vt 0.996029 0.364303
vt 0.996029 0.336788
vt 0.506727 0.336788
vt 0.506727 0.364303
vt 0.343627 0.336788
vt 0.343627 0.364303
vt 0.180526 0.336788
vt 0.180526 0.364303
vt 0.017426 0.336788
vt 0.343627 0.418544
vt 0.180526 0.418544
vt 0.343627 0.472786
vt 0.506727 0.472786
vt 0.506727 0.418544
vt 0.180526 0.472786
vt 0.017426 0.472786
vt 0.017426 0.418544
vt 0.017426 0.364303
vt 0.017426 0.309272
vt 0.180526 0.309272
vt 0.017426 0.281757
vt 0.180526 0.281757
vt 0.343627 0.309272
vt 0.343627 0.281757
vt 0.506727 0.309272
vt 0.506727 0.281757
vt 0.669828 0.309272
vt 0.669828 0.281757
vt 0.017426 0.254241
vt 0.180526 0.254241
vt 0.017426 0.190531
vt 0.180526 0.190531
vt 0.343627 0.254241
vt 0.343627 0.190531
vt 0.506727 0.254241
vt 0.506727 0.190531
vt 0.669828 0.254241
vt 0.669828 0.190531
vt 0.017426 0.126820
vt 0.180526 0.126820
vt 0.017426 0.012784
vt 0.180526 0.012784
vt 0.343627 0.126820
vt 0.343627 0.012784
vt 0.506727 0.126820
vt 0.506727 0.012784
vt 0.669828 0.126820
vt 0.669828 0.012784
vt 0.832928 0.126820
vt 0.832928 0.012784
vt 0.996029 0.126820
vt 0.996029 0.012784
vt 0.832928 0.190531
vt 0.832928 0.254241
vt 0.996029 0.254241
vt 0.996029 0.190531
vt 0.832928 0.281757
vt 0.832928 0.309272
vt 0.996029 0.309272
vt 0.996029 0.281757
vt 0.994953 0.987601
vt 0.994953 0.993157
vt 0.990141 0.995936
vt 0.990141 0.984823
vt 0.985329 0.987970
vt 0.985329 0.993527
vn -0.000000 1.000000 0.000000
vn -0.885900 0.463800 0.000000
vn -0.861300 0.507100 0.032100
vn 0.000000 0.994900 0.100400
vn -0.873700 -0.486000 -0.021700
vn -0.866000 -0.500000 0.000000
vn 0.885900 0.463800 0.000000
vn 0.861300 0.507100 0.032100
vn 0.866000 -0.500000 -0.000000
vn 0.873700 -0.486100 -0.021700
vn -0.000000 -1.000000 -0.000000
vn 0.000000 -0.999100 -0.041700
vn -0.000000 0.970900 0.239500
vn -0.883300 0.458500 0.097300
vn -0.878500 -0.475900 -0.042200
vn -0.000000 -0.996100 -0.088000
vn 0.878500 -0.475900 -0.042200
vn 0.883300 0.458600 0.097300
vn -0.000000 0.855600 0.517700
vn -0.884200 0.416700 0.211200
vn -0.000000 0.625900 0.779900
vn -0.944900 -0.288100 -0.155500
vn -0.917900 0.258500 0.301100
vn -0.926200 -0.238900 -0.291600
vn 0.000000 0.332800 0.943000
vn -0.902300 0.148400 0.404700
vn 0.000000 0.023100 0.999700
vn -0.910300 0.013800 0.413800
vn -0.942600 -0.122300 -0.310700
vn -0.927400 -0.008700 -0.374000
vn 0.910300 0.013800 0.413800
vn 0.902300 0.148400 0.404700
vn 0.927400 -0.008600 -0.374000
vn 0.942600 -0.122300 -0.310700
vn -0.000000 -0.039600 -0.999200
vn -0.000000 -0.381600 -0.924300
vn 0.926300 -0.238900 -0.291500
vn 0.000000 -0.646000 -0.763400
vn 0.944900 -0.288100 -0.155400
vn 0.884200 0.416700 0.211200
vn 0.917900 0.258500 0.301100
vn -0.000000 -0.930200 -0.367100
vn -0.918800 0.085400 -0.385300
vn 0.000000 0.208700 -0.978000
vn -0.915600 0.162000 -0.367900
vn 0.000000 0.395100 -0.918700
vn 0.918800 0.085400 -0.385300
vn 0.915600 0.162000 -0.367900
vn 0.922100 -0.065200 0.381500
vn 0.930900 -0.116900 0.346000
vn -0.000000 -0.186300 0.982500
vn -0.000000 -0.334600 0.942400
vn -0.934200 0.203900 -0.292800
vn 0.000000 0.594000 -0.804500
vn -0.924500 0.290200 -0.247300
vn 0.000000 0.776200 -0.630400
vn 0.934200 0.203900 -0.292800
vn 0.924500 0.290200 -0.247300
vn 0.909800 -0.239200 0.339100
vn 0.919300 -0.321300 0.227100
vn -0.000000 -0.573000 0.819500
vn -0.000000 -0.799900 0.600200
vn -0.925000 0.346500 -0.155800
vn -0.000000 0.923100 -0.384500
vn -0.925500 0.368300 -0.088400
vn 0.000000 0.972400 -0.233300
vn 0.925000 0.346500 -0.155800
vn 0.925500 0.368300 -0.088400
vn 0.905400 -0.394900 0.155900
vn 0.875500 -0.468800 0.117100
vn 0.000000 -0.928300 0.371900
vn 0.000000 -0.970200 0.242400
vn -0.905400 -0.394900 0.155900
vn -0.875500 -0.468800 0.117100
vn -0.919300 -0.321300 0.227100
vn -0.909800 -0.239200 0.339100
vn -0.930900 -0.116900 0.346000
vn -0.922100 -0.065200 0.381500
vn -0.121600 0.070200 -0.990100
vn -0.121700 0.070200 -0.990100
vn -0.000000 0.070800 -0.997500
vn -0.000000 0.070700 -0.997500
vn 0.121600 0.070200 -0.990100
vn 0.121700 0.070200 -0.990100
vn -0.000000 -0.003100 -1.000000
vn 0.000000 -0.002900 -1.000000
vn -0.000200 -0.003000 -1.000000
vn 0.000200 -0.003000 -1.000000
vn 0.000100 -0.003100 -1.000000
usemtl C:\Users\Eric\Desktop\dump\callofminiinfinity.app\Data\Texture2
s 1
f 1/1/1 2/2/2 3/3/3
f 1/1/1 3/3/3 4/4/4
f 2/2/2 5/5/5 3/3/3
f 2/2/2 6/6/6 5/5/5
f 7/7/7 1/1/1 4/4/4
f 7/7/7 4/4/4 8/8/8
f 9/9/9 7/7/7 8/8/8
f 9/9/9 8/8/8 10/10/10
f 11/11/11 9/9/9 10/10/10
f 11/11/11 10/10/10 12/12/12
f 13/13/6 11/11/11 12/12/12
f 13/13/6 12/12/12 14/14/5
f 3/3/3 15/15/13 4/4/4
f 3/3/3 16/16/14 15/15/13
f 5/5/5 16/16/14 3/3/3
f 5/5/5 17/17/15 16/16/14
f 12/12/12 18/18/15 14/14/5
f 10/10/10 19/19/16 12/12/12
f 12/12/12 19/19/16 18/18/15
f 10/10/10 20/20/17 19/19/16
f 8/8/8 20/20/17 10/10/10
f 4/4/4 15/15/13 21/21/18
f 4/4/4 21/21/18 8/8/8
f 8/8/8 21/21/18 20/20/17
f 16/16/14 22/22/19 15/15/13
f 16/16/14 23/23/20 22/22/19
f 17/17/15 23/23/20 16/16/14
f 23/23/20 24/24/21 22/22/19
f 17/17/15 25/25/22 23/23/20
f 23/23/20 26/26/23 24/24/21
f 25/25/22 26/26/23 23/23/20
f 25/25/22 27/27/24 26/26/23
f 26/26/23 28/28/25 24/24/21
f 27/27/24 29/29/26 26/26/23
f 26/26/23 29/29/26 28/28/25
f 29/29/26 30/30/27 28/28/25
f 29/29/26 31/31/28 30/30/27
f 27/27/24 32/32/29 29/29/26
f 32/32/29 31/31/28 29/29/26
f 32/32/29 33/33/30 31/31/28
f 28/28/25 30/30/27 34/34/31
f 28/28/25 34/34/31 35/35/32
f 24/24/21 28/28/25 35/35/32
f 35/35/32 34/34/31 36/36/33
f 35/35/32 36/36/33 37/37/34
f 37/37/34 36/36/33 38/38/35
f 37/37/34 38/38/35 39/39/36
f 39/39/36 38/38/35 40/40/30
f 41/41/37 37/37/34 39/39/36
f 41/41/37 39/39/36 42/42/38
f 43/43/39 41/41/37 42/42/38
f 21/21/18 43/43/39 20/20/17
f 15/15/13 44/44/40 21/21/18
f 44/44/40 41/41/37 43/43/39
f 15/15/13 22/22/19 44/44/40
f 21/21/18 44/44/40 43/43/39
f 22/22/19 24/24/21 45/45/41
f 24/24/21 35/35/32 45/45/41
f 45/45/41 37/37/34 41/41/37
f 44/44/40 45/45/41 41/41/37
f 45/45/41 35/35/32 37/37/34
f 22/22/19 45/45/41 44/44/40
f 43/43/39 42/42/38 46/46/42
f 20/20/17 43/43/39 46/46/42
f 20/20/17 46/46/42 19/19/16
f 19/19/16 46/46/42 47/47/22
f 19/19/16 47/47/22 18/18/15
f 46/46/42 42/42/38 48/48/24
f 46/46/42 48/48/24 47/47/22
f 42/42/38 49/49/29 48/48/24
f 42/42/38 39/39/36 49/49/29
f 39/39/36 40/40/30 49/49/29
f 38/38/35 50/50/43 40/40/30
f 38/38/35 51/51/44 50/50/43
f 36/36/33 51/51/44 38/38/35
f 51/51/44 52/52/45 50/50/43
f 51/51/44 53/53/46 52/52/45
f 34/34/31 54/54/47 36/36/33
f 54/54/47 53/53/46 51/51/44
f 36/36/33 54/54/47 51/51/44
f 54/54/47 55/55/48 53/53/46
f 30/30/27 56/56/49 34/34/31
f 34/34/31 56/56/49 54/54/47
f 56/56/49 55/55/48 54/54/47
f 56/56/49 57/57/50 55/55/48
f 30/30/27 58/58/51 56/56/49
f 58/58/51 57/57/50 56/56/49
f 31/31/28 58/58/51 30/30/27
f 58/58/51 59/59/52 57/57/50
f 53/53/46 60/60/53 52/52/45
f 53/53/46 61/61/54 60/60/53
f 55/55/48 61/61/54 53/53/46
f 61/61/54 62/62/55 60/60/53
f 61/61/54 63/63/56 62/62/55
f 64/64/57 63/63/56 61/61/54
f 57/57/50 64/64/57 55/55/48
f 55/55/48 64/64/57 61/61/54
f 64/64/57 65/65/58 63/63/56
f 59/59/52 66/66/59 57/57/50
f 66/66/59 65/65/58 64/64/57
f 57/57/50 66/66/59 64/64/57
f 66/66/59 67/67/60 65/65/58
f 68/68/61 67/67/60 66/66/59
f 59/59/52 68/68/61 66/66/59
f 68/68/61 69/69/62 67/67/60
f 63/63/56 70/70/63 62/62/55
f 65/65/58 71/71/64 63/63/56
f 63/63/56 71/71/64 70/70/63
f 71/71/64 72/72/65 70/70/63
f 71/71/64 73/73/66 72/72/65
f 65/65/58 74/74/67 71/71/64
f 74/74/67 73/73/66 71/71/64
f 67/67/60 74/74/67 65/65/58
f 74/74/67 75/75/68 73/73/66
f 69/69/62 76/76/69 67/67/60
f 76/76/69 75/75/68 74/74/67
f 67/67/60 76/76/69 74/74/67
f 76/76/69 77/77/70 75/75/68
f 69/69/62 78/78/71 76/76/69
f 78/78/71 77/77/70 76/76/69
f 78/78/71 79/79/72 77/77/70
f 80/80/73 79/79/72 78/78/71
f 80/80/73 81/81/74 79/79/72
f 82/82/63 81/81/74 80/80/73
f 82/82/63 83/83/65 81/81/74
f 84/84/75 80/80/73 78/78/71
f 84/84/75 78/78/71 69/69/62
f 85/85/76 69/69/62 68/68/61
f 85/85/76 84/84/75 69/69/62
f 86/86/53 84/84/75 85/85/76
f 87/87/55 80/80/73 84/84/75
f 87/87/55 82/82/63 80/80/73
f 86/86/53 87/87/55 84/84/75
f 88/88/77 68/68/61 59/59/52
f 88/88/77 85/85/76 68/68/61
f 89/89/78 59/59/52 58/58/51
f 33/33/30 89/89/78 31/31/28
f 31/31/28 89/89/78 58/58/51
f 89/89/78 88/88/77 59/59/52
f 90/90/43 88/88/77 89/89/78
f 33/33/30 90/90/43 89/89/78
f 91/91/45 85/85/76 88/88/77
f 91/91/45 86/86/53 85/85/76
f 90/90/43 91/91/45 88/88/77
f 92/92/79 93/93/80 94/94/81
f 92/92/79 94/94/81 95/95/82
f 94/94/81 96/96/83 95/95/82
f 94/94/81 97/97/84 96/96/83
f 98/95/85 99/94/86 100/93/87
f 98/95/85 100/93/87 101/92/85
f 98/95/85 102/97/88 99/94/86
f 98/95/85 103/96/89 102/97/88
